# xmcd
#
# Track frame offsets:
#	150
#	11108
#	21688
#	34877
#	45231
#	56990
#	78636
#	90769
#	103879
#	124825
#	137181
#	149250
#	168770
#	180466
#
# Disc length: 2532 seconds
#
# Revision: 1
# Processed by: cddbd v1.5.2PL0 Copyright (c) Steve Scherf et al.
# Submitted via: audiograbber 1.83.01
#
DISCID=be09e20e
DTITLE=Emmy and The Bluegrass Pals - Home
DYEAR=2009
DGENRE=Bluegrass
TTITLE0=Georgia Bound
TTITLE1=I'm Satisfied With You
TTITLE2=No Mother Or Dad
TTITLE3=If That's The Way You Feel
TTITLE4=Folsom Prison Blues
TTITLE5=I Still Miss Someone
TTITLE6=I'm Waiting To Hear You Call Me Darling
TTITLE7=Old Home Place
TTITLE8=Mama's Hand
TTITLE9=Why Don't You Tell Me So
TTITLE10=I Wonder How The Old Folks Are At Home
TTITLE11=Your Cheating Heart
TTITLE12=It's Raining
TTITLE13=Hot Corn, Cold Corn
EXTD=recorded by Robert Tapped (The Netherlands)
EXTT0=
EXTT1=
EXTT2=
EXTT3=
EXTT4=
EXTT5=
EXTT6=
EXTT7=
EXTT8=
EXTT9=
EXTT10=
EXTT11=
EXTT12=
EXTT13=
PLAYORDER=
